<mxfile host="app.diagrams.net" modified="2023-07-10T21:25:56.682Z" agent="Mozilla/5.0 (Macintosh; Intel Mac OS X 10_15_7) AppleWebKit/537.36 (KHTML, like Gecko) Chrome/114.0.0.0 Safari/537.36" etag="s7Ubxobcd6hyoSBQgGMo" version="21.6.1" type="device">
  <diagram name="Page-1" id="dgxygOPntDGfzA3OyF_s">
    <mxGraphModel dx="1908" dy="970" grid="1" gridSize="10" guides="1" tooltips="1" connect="1" arrows="1" fold="1" page="1" pageScale="1" pageWidth="850" pageHeight="1100" math="0" shadow="0">
      <root>
        <mxCell id="0" />
        <mxCell id="1" parent="0" />
        <mxCell id="ocwCyY5JtM8R12H6Ftph-3" value="" style="group" vertex="1" connectable="0" parent="1">
          <mxGeometry x="260" y="235" width="1200" height="630" as="geometry" />
        </mxCell>
        <mxCell id="ocwCyY5JtM8R12H6Ftph-1" value="" style="rounded=0;whiteSpace=wrap;html=1;strokeWidth=0;strokeColor=none;fillColor=default;movable=1;resizable=1;rotatable=1;deletable=1;editable=1;locked=0;connectable=1;" vertex="1" parent="ocwCyY5JtM8R12H6Ftph-3">
          <mxGeometry width="1200" height="630" as="geometry" />
        </mxCell>
        <mxCell id="ocwCyY5JtM8R12H6Ftph-2" value="" style="shape=image;aspect=fixed;image=data:image/png,iVBORw0KGgoAAAANSUhEUgAAB8kAAAFNCAYAAACDq178AAAACXBIWXMAABYlAAAWJQFJUiTwAAAgAElEQVR4nOzd/VUcR7oH4K579n98I0AbAWwEYiMQG4FQBMIRCEdgFIEggkURGCIwRLAigisiqHvKemc9lkCCYXqmPp7nHI68PmvU0z0901W/et9KOecJAAAAAAAAAEbwP64yAAAAAAAAAKP4myvNHFJK+9M0/RQ/+/FXLP/zwstn/PW30zR9Wvrfn6dpur7nn69zzp9daAAAAAAAAEC7dVaSUnoxTVP5OYj/fvHnc0LvuS1C9cVPCdE/55wvvQsAAAAAAABgDEJyviultKj+Pog/SzC+1+FZu4vQ/HIRoOecrx/x3wEAAAAAAAANEZLzX18F4otQfGfwM3QTwfm14BwAAAAAAADaJyQfWLRMXw7Ee6wQX7e7pdD8Uqt2AAAAAAAAaIuQfCBRKV4C8cP4c3f0c7ImHyM4v1RpDgAAAAAAAHUTkncupbRon36kUnwjbiMwv4jQ/PMArxkAAAAAAACaISTvUErpcKliXLX4dn1cCsw/jXwiAAAAAAAAoAZC8k5EML742Rn9fFTqZpqmsxKaC8wBAAAAAABgO4TkDYtW6kfxIxhvy6LC/EJLdgAAAAAAANgcIXljUkovolr8WCv1bpxHWH4x+okAAAAAAACAuQnJGxHt1EvF+KvRz0XHbqMd+5l27AAAAAAAADAPIXnFUko/RcX4karx4ZR27Kc558vRTwQAAAAAAACsk5C8QrHXeAnHX49+LvijuvzE3uUAAAAAAACwHkLyikRL9RKOvxz9XPCNu1JZHtXlwnIAAAAAAABYkZC8Aimlo6gW1lKdxzgv7xf7lgMAAAAAAMDTCcm3SDjOMwnLAQAAAAAA4ImE5FsgHGfNhOUAAAAAAADwSELyDRKOMzNhOQAAAAAAAPyAkHwDUkqH0zSdCsfZkPcRln92wgEAAAAAAOCvhOQzSikdROX4y25fJLW6i4UZp8JyAAAAAAAA+JOQfAYppRcRjr/u7sXRmtuoKj9z5QAAAAAAAEBIvnYppRKOH0/TtNPZS6NtV+V9mXO+dh0BAAAAAAAYmZB8TaK1+pl9x6mc/coBAAAAAAAYmpD8maK1etn7+VXTL4SR3EVVuRbsAAAAAAAADEdI/gwppePYe1xrdVpUWrAf5Zw/uXoAAAAAAACM4n9c6adLKe2nlC6nafpVQE7DXk7TdB2LPQAAAAAAAGAIKsmfKKVUKsffNXXQ8GM3UVV+7VwBAAAAAADQMyH5I8Xe4xfTNO01ccDwdGWv8pOc86lzBwAAAAAAQK+0W3+EaEd9LSCnc2XrgF/LVgKxKAQAAAAAAAC6o5L8O1JKP0X1+MtqDxLmcRft1y+cXwCoVyxsO3KJqnC5fBA558t6DxUAALbPeKYqxjMDSykdTNN0MPp5qMDnKNhduM45fx75hMxNSP6A+FC4iOpaGNX5NE3HPogBoE7xzPqby1O122maPi0Ndss/fzLpBABjSCntT9PUytZ2ZTL+uILjYBDGM00wnhlASulkmqZ3o5+Hii3uw8U9eO0eXI+/9fAi1s0HAvzX62ma9lNKpar82mkBAHiy3fgpXi3+45TSFAPd6/i5tEocALr0ky6VQMOMZ2D7Fvfhf58n4h68Wbr/LnPOn1yrp1FJvkR7dXjQXVSUnzlFAFAPlRddulkMcGOQa5IJABrW2PPaVc5Zu102xnimS8YzDVI42o3buPcubKX7OP/TwkFuQnwhfxKQw73KtgMfUkpnsZgEAIB57E3T9Haapn9P0/R/KaXrMmERrVoBAABqdt945th4BjZiN7oD/zul9DnynEOn/mFC8i8B+XGsWLP/OHxf+YC9TCm9cJ4AADZiL1b0/55S+pRSOjXBBAAANKKMZ341noGN27knMHfvfWXokLxUxJY3RnxIA49THmyuo/sCAACbsxtVGcsTTBYvAgAALfh6PHNiPAMbsQjMy71XiiCPnPYvhg3Jo2X0ZbwxgKcpH6q/+TAFANiaxQTTfwxyAQCAxuxGxyzjGdisl7G17mKhytDb6w4ZkkdLgU9REQus7kN0YwAAYHsWg9zPqssBAIDGGM/A5i0Wqgwdlg8XkseKpEv7j8PavE4pXYy+4ggAoAI7S9XlZ7bHAQAAGmI8A5u3sxSWD9fRYaiQPC7wBwE5rN2rsvhEUA4AUI3XsT3OpcklAACgMcYzsFk7S23Yh7nnhgnJoyX0hwoOBXq1F6uN9l1hAIBqvDS5BAAANMp4BjZrN+65ixG2PhgiJI+A/HUFhwK924mKckE5AEBdTC4BAACtWh7PmHuG+ZXuwdcppeOez3XXIXlp/Vw+NAXksFGLoPzQaQcAqM5iculshFXhAABAV8p45nfjGdiIkvX8GotTurzfug3JY2/ky/jQBDarfHj+O6V05LwDAFTpdawKP4mxEwAAQCv+O55xxWB2L+N+6y7v6TIkXwrI9yo4HBjZB0E5AEC1ysLGdzHY1YIdAABoyR/jmZTSJ+MZmN1O5D1nPS207y4kF5BDdQTlAAB1240W7BeqygEAgMYYz8DmvI7tdrtov95VSC4gh2oJygEA6vdqmqZShXHsWgEAAI1ZjGcOXTiY1V4vHem6CckF5FA9QTkAQP1KC7VfU0qXqjAAAIDGlPHMv1WVw+x2ooND05lPFyG5gByaISgHAGjDS1UYAABAo1SVw2aUzOe01XPdfEguIIfmCMoBANqwqMI4U4UBAAA0ZjGeOTWegVm9LfMGLZ7ipkNyATk0S1AOANCO12XclVLad80AAIDGvDWegdm9bjEobzYkF5BD8z5odwMA0Iy9mFiy0BEAAGiN8QzMr7mgvOVK8jMBOTTvzAo+AIBm7LS+3xgAADAs4xmYX1NBeZMheZzgVxUcCvA8O1rdAAA0p+w3dmlfPwAAoEHGMzCvZoLy5kLylNJJ7IkH9GERlHsoAQBox0uLHQEAgEYZz8C8XkeeW7WmQvLYL+JdBYcCrJegHACgPXsmlgAAgEYZz8C83kWuW61mQvKU0kHZL6KCQwHmUR5KLpxbAICmlMWOv9c+8AUAALiH8QzM60PNC1GaCMnjBArPoH8vW9mrAgCAv/hgYgkAAGiU8QzMp9ouwtWH5HHizmJFD9C/1x5IAACaVCaWTl06AACgQR9a2EMZGvTHdrs1HnYLleQX0YYZGMeH2GIBAIC2vNUZCAAAaNQ74xmYxV6Ni+qrDsnjhL2s4FCAzbtIKb1w3gEAmvPaxBIAANAo4xmYR1lUf1jTua02JI92y28rOBRgO3YiKK9yrwoAAL7LxBIAANAq4xmYx1lNmU+VIXlKaX+aJnvZAXs+CwAAmmViCQAAaJXxDKxfKY6s5r6qLiSPFQQXcaIAXkdnCQAA2mNiCQAAaJXxDKzfq1rartdYSV4+cHYrOA6gHqfRYQIAgPaUiaUT1w0AAGhQGc8cu3CwVlW0Xa8qJI8PmlcVHApQl53a9qoAAOBJ3ukOBAAANOpX4xlYq50attqtJiSPKtFfKzgUoE72JwcAaNsHE0sAAECjjGdgvUqXhoNtntMqQvKoDrWvA/Aj9icHAGibbXQAAIBWGc/Aem11a7ZaKslPokoU4EfKg8gLZwkAoEmlpdqliSUAAKBBi/GM+WlYj5cppcNtncuth+Tx4t9u+ziAZuzoPAEA0LQ/nueioxgAAEBLynjmwngG1mZr2+xuNSTXZh1YUVldtNU2HAAAPEvpJHbhFAIAAA3ak23B2uxua5vdbVeSn8WqG4CneqdNJwBA08rCx62tGAcAAHiGVwq5YG22ci/9bVvXL9qsv9rW3w90oSy0EZQDQBuuyt5tHV+rF/HzU1QV8DhvU0qXOWdV5QAA1Mx4hvuUQq5r45mNOp+m6VOnr21xH+4PWGD8RzV5znmjHRq2EpJrsw6syV5ZrZdztmIPAOp3OdJ3dkppMbg9iAFu+dmt4NBqVPYnP8g5X49+IgAAqJbxjPHMQ4xnNuss59zzgpU/xD14ED+Hg4Tmx5vOjrdVSa7NOrAuZbVe+WLsdfUYANCgeDb5tFxtsjTI1VXrr3aWJpY+13RgAAAwou+MZw5jTGM88yfjGdYu7sGzRWgc3bnLz+uOz/Ze3EcbWwSx8T3Jywv0AQqsmc4UAED1yiC3tA7LOR/mnNM0Tf+KVnF8aelof3IAAKhUjGdOjWfutbetPZUZQ2npn3M+mqbp79M0/TJN012nL/xok3/ZRkNybdaBmbws+1U4uQBAS5YGuf87TdObaZpuBr+Ar2N1PAAAUDnjmW+8NZ5hbrFY5SS2QOhxkcrryJI3YtOV5Mf2rQBmcrrJD08AgHUpLfmiwrwMcv85eDXGWbRxBAAAGnDPeObjwNfNeIaNiLD8KO653haobKwgcmN7kscHw7tN/X3AcHaiRaeKcgCgWbH31mVK6STa9fW839h9dqL72EF9hwbwOCmlEhL8tPRZtvjfxcuZT+NV/Fn2RL1e+vNT7G0JPFEUZRwPct7+2B6oguOgUUvjmRfGMzC/cs/FNtflfnvbySk/2tR2bBsLybVZBzagtOI4i4cxAIBmRZBxFGF5GRy+Guhqlq10jst+hxUcC8CDIjjbj4nw8ueL2JN0m5ZD+L98d6RUto/9o9LoevFj/AyPclnBvb0Jd4I91sV4xniGzSndHMpirpTSddxvO42f/r2y6DTnfD33X7SRduuxD8PcK2UBplgxBQDQhWihdthpC7Xv+TUqMQGqUULxMseVUjqNScj/m6bpt+ic+KqREG0vqvp+LceeUsrltcRrso8qfKUUYwwSkBdHmwgkGMvA45kTbdfZtOgEchCLnlq3kY7Bm9qT3IoZYFPKSj0t1wGArpRKv9jj7+dOBryPYRwJbF1ZsFOqwZZC8X9HK8ueQrO9eE3/jtD8Ml6zyX2GFgH5KK2i3+ScLyo4Djo14HhmR3dltiEWO/UQlG9k8ebsIXm009id++8BWHISbe8AALoSLfv2l/ac7dkfbQq9g4FNi2C8VFaXVrG/R9X1KJWkU3SDLK/5P1FlLjBnOAMG5MI8NsJ4BubXSVC+u4nnz1lD8gipfAgAm7brswcA6FW0LDwYpApDm0JgI6KV+qJi/PeorFb08WVxwHJgfmRROr0ri2QE5DAf4xmY31JQ3rLZq8nnriQ/6WCDeKBNxwbuAEDPogrjoPO9/Xa0XQfmlFI6iIrR/xuwYvypyrn5ME3Tp3LOSsV9W4cPPxZb+L0d5FS9F5CzTcYzMK8Iyt80fJpnD/lnC8ljdcwoDxRAfTyAAADdW1odft7xa32VUtrIfmTAOKIiunyG/jZQxei67MQ5+z32L2+9Sgn+EAH5h0HOxnnOWRdGtm6g8YzvSrYiFkO1en+9mvsvmLOS/GTG3w3wGK+1swEAepdz/pxzPmp8hfiPnOoSBKxDhOOfIghTNf58Zf/y38o5jYARmjRgQO5+pRpL45mfO74qujawTWVR1G2LV2DuBSazhOQRSlmFC9TAgh0AYAixQvyfne7rtxsDe4CVfBWO22t8/co5/SAsp0UCcqhDtF/vdjyTUjJPzVaUhSjTNLX62T9rSP63mX6vVTFALUo1+UnO+ZMrAgD0Lue8aHt70WEIdFz2wK3puS4m1VuZbDiOdpasWWPvg7PR9p+N7RpOBeMbswjLyz1RxuKXg7xuGhV764+yXd+VgJzaLY1nLmN7j55UN55hHHFvfdxEC/M125/zl689JI8PsJfr/r0Az3DS8EopAIAnKUFoTPhedtZKeKfC57oXDY1/taufT0vvg2ECy6XgyxzVdizasH+MRToCAaqz9LzUWxB3n5tpmg7rOyz4VoxnXhjPwNodC8n/ao5261pGALWxNzkAMJRop3YQE6I9eT33nmRA21JKP6WUSjj+u4C8CmUi9j+lw1u5NqOfDOoxYEB+EM+H0ITOxzOzhn7wkFi0eN7YCdqd8xlyrSF53NwGIECNLOABAIbS8cSS5zrgXtFavUz+vXWGqvNumqZrC52ogYAc2tDxeGaULR6oU4vvv9kWlqy7kvx4zb8PYF1UkwMAw+l0YumlkAVYFtXjF9M0/XuQ0KtVu9GC/VRVOdsS772zQT4r7gTktM54BtarbGfQ4P1Uf0ge4dPrdf0+gBmoOgIAhtPpxJLnOuAPS9Xjre2vOLK3qsrZhgjIe9vj+CECcrphPANr11o1eRPt1t3UQO1UkwMAQ1qaWLrr5PW/jGAMGNTS3uOqx9u0qCo3n8hGDBqQX1dwLLAWMZ457Gw8Y7EY23LR2Jmf7V5ZS0geDxmqyIEWHLlKAMCIOgzK7eUHg1raT9je4+17l1K61H6dOQnIoQ8550+djWcsFGMrYm7gytlfXyW5vciBVhwbfAMAo4oJ014qsHdVk8N44r4fJewaxcvSMj8WP8Aczgb6zBCQ07XOxjOqydmm8jzdipdzHaeQHBjNjmpyAGBkOecyGH7TySkwFoWBRGtu7dX7VK7p7ykl43XWKqVUAvJXg5zVNwJyRhDjmZ87eamqydmWlkLy2Tw7JI+HV4MToCUmUwGAoeWcy4TxeQfnQPUFDCD2Hy+fW+9c7+59iGsNzxbvpVG2CH0Tz3cwhJzzqfEMPMvwi6qmNVWSC5uA1mjNCQDwZSx308F5UH0BHVvaS3iUoItpep1SurBVGs8hIIchGM/AimJf8mb2959rMcmzQvI4KHtAAS3Swg0AGFoMig9bGhg/4KV9bKFPKaUX9h8fVmmPfSkoZxUppeOBAvKfBeSMKsYzR52MZ15UcByMZ/hq8udWkguZgFa98vABAIwu5/ypk3GdDmfQmVj8ci0gH9qeoJyniq1Bfx3kxJ1Hy2kYVuzD38NYQDU5bMHKIXk8oGp1BbTMQh8AYHg554sO9vN7LUSBfkRAXirId1zW4QnKebQIyD8McsZKQG5eC76MZ0o3hY+NnwvjGbZBJfkz/ltfwkDrfI4BAHxRqi9uGz8XqsmhAwJy7iEo54cE5DC8I+MZeLLPo5+yvz3jv/VFDLRuN6V0GNVTQ0opaeWzPpfxm65jTyQAaEb57orJ5d8avmpH2hTCD32q+RQJyPmORVB+YLzF18r7QkAOYzOeAVaxUkgegxZ7QgE9KA8fw4bk0zS9q+AYevHfc5lSKn9cxSRkaVtzGXskAUC1cs4lfDhveFut4RdAwiNUG5ILyHkEQTnfiM+OUb77b1SawsNiPFParr9q9DQZz7Bpw3fpWbXdutVqQC9eadnGTF5GyPDrNE2/p5TKitaLlNJxSumFkw5ApcrE613DF8dYFRoUY7IzATmPoPU6/zXY4poSkFsgAj92ZDwDj7Y/+qkSkgNM06FzwAbsxErWEpr/J6X0KaV0KjAHoCYx8dpyhdIr363Qlgg7L3Us5An2YlEFAxOQA/cxngGe4skheWn3YGUv0BmtqtiG3Wma3kZgfl32TVINAUANcs5nsW1IqyzqhracCchZQQkRBOWDWlpcIyAHvtHBeEZBF5uiknyF/8YNCvRmzwo9tqxMCn4oe0SqLgegEicNXwghOTSiPPs2vG8o2/e6LDZ2HcYyWEBeWkYfCchhJS2PZxR0Mbv4Pm3muzTnfDnH7xWSA3zhs40a7CxVl58JywHYlhiAnjd6AXajBStQsQg337pGPNOHlNKBkziGwbZnuIsK8usKjgWaYzwDPzT8e2x6akiu1TrQMavPqc3rpbBcG3YAtkH1BTCLmPg9dXZZkwsLjPsnIAdWoDsWPGz4RYbTCpXkKi2BXmm5Tq1eRxv2lh/sAWhQzvnTNE2/NHrtjF2hUhF0XSjCYI124j1F3wTkwJPEeOZ9o2dNSM7cWhozX831i4XkAH/yGUetyqTPu5TSJ60EAdiw05isbc1OdEID6nNW2oi6LqzZXuxxT4dKh7VBAvIp9iAXkMP6nBjPwF/FotVRvle/69EhuVbrwACs0KN2ZTLxtzL5owU7AJuQc/7ccEtkk0pQmdiH/JXrwkzeWlTcnwjIXw/yct/knHVFgDUynoEu3luXc/3ip1SSe8gEercneKQRb8vDQezlCABza7Wa3KQSVCS2t1Lpy9wujOv7MWBAflbBcUCPhOTwV8eNnY/Pc/3ip4TkbkhgBD7raEVpifN7VOMAwGyi+qLFqqYdFYVQlTMdCtmAnXiv0bhony8gB54txjPnDZ7JHQUyrFuMkVtrtT7bNiSPCsnjRrRfFDACE6m05kOsrgeAOZ00enYtgIQKpJRKtcpL14INeWUf17bFYvC3g7zcXwTksBGtjmcUx7BuLb6nthuSC42AgRhI06LXKaVrbQUBmEvO+VOj1Ree7WDLos16qxPTtOvU+KhNEZB/GOTlnuecfT7CBsR45mOD59p4hrWJ5/LWurTcRjeIWTw2JHcjAqPQxoZW7dmnHICZtVjltBsTAcD2nGqzzhbsWpzRngEDchWisFkt7k1uPMM6tTimn62KvPjbI/9/WmIBIzmc+8MXZrIIyg9yzt7DAKxVzrl8x9w0uH/ZYaMTYtC82PPwlSv5oNtpmj4983e8sEXig96WramMjdoQLfIF5MBsYjxz2+D3pvEMzxbfsy1mvZdz/vIfhuT28AEGZIsJWrYjKAdgRqcNTmAfmFSCrbHP7jTdxSLsy/jzc5mkn+MvikUJL+Kn/PO+Kv4/Pv+N8SsXHdFG+by4EpDDVp0YzzCa2IKm1e/ZrVeSe5AERqN7Bq0TlAMwl4sGWyerYoUtSCkdD1zhfBWfl5ebfB6/L3yP8PEwflrrBLIOL0sBUM75ov2X0qd4j14OsqDjxramsHUXjYbk8BxnrX7PzrW4dOExe5K7AYHhxAp8aNkiKLdvEQBrk3P+HBNLTfFsB5sV1Sqj7Qddwq+fp2n635xzWax6WsOC1XIMOeeTnHMJIv8ex3i77ePaMNV3lRowID+IZylgS+IePG/s/O8Yz7CqWLja6sLxj3P/BY8JyUdcZQrgwYMelImGi5ikBIB1abFNm2c72Kzjgdp8l4n2f5QQOoLxagOwnPOnOMaykPafUfE+gt2UkvbWlRGQA1vUYncR4xmeLBZX/NrwmZu1inz6UUhudQowMJ9/9GJvEw8UAIwj2p21VoXo2Q42JBZoHg9wvks4/veyt3CLWxyVz/JS8R7V5a1V1K1itM4GVVvaG3WEgPxWQA51iS04jGfoWixGa327mdmP/0eV5G48YFT2JacneymlFqv+AKhXa4Ntz3awOb1XkV8theOfKjieZ4nq8qMBKstVk1ciAvLLQbqX3pU9yAXkUCXjGbrVSbeWm008awvJAR4QXybQi9cmhQBYo+YWX+mUBvPrvIq8VJz9K/Ybbz4c/9pSZfmbCPZ6pJp8ywYMyA9a7DQBgzCeoUvxPulhO5ONdEb9UUguIAJG5sGD3pxa/AHAOsSEb2stCn0Hwvx6rSIv7cj3oz1r13LOJTQoe5Z/7PB1qibfIgE5UBPjGXoUzzm/dfI8frqJv+TBkDwm0UfYFwbgIR486M1OiytlAahWa2GRBZAwv96qyO+ievxopHbJ5bXmnA+nafq5gsNZtxH2y6/V6SAB+SQgh2ZspFJ1jYxnuFdZiBZbbX7o5AxtpNX69INKcuEQMDqfg/So7E+uzSAA69DapJJnO5hRVK70VGxxE0FX99XjD8k5l1DzH521X9/TrnbzYuL+9SAv942AHJrR2ne88QzfiOea686+ZzdW5CUkB3jYKCucGc87bdcBeK4Gg6PdaPUKzKOnCt0rlaBfxDl4EYsGeqHl+gYNGJDr3gaNMJ6hZSmlFymli2ivvtvZxRSSA9TACnM6ZuAOwDq0tmetcS7MIBZg9rLI+DznfDBSe/UfiXNx0FFQ/rpMLFdwHN0TkAMNMJ6hKRGOl++b/0zT9KrDq3e+yedwITnA9/kspFd70RITAJ7DPn7A1FEVeZmU84x8j6Wg/Ly6g1vNYYsH3ZKU0rGAHGiA8QzViz3Hj1JKlxGO9/z9utHv03tD8lhN2dM+UgCrsrqcnp1q0wTAM9mXHJg6CRwF5D8QQflxJxXlPW0PUJ1YkP3rIC/3XEAOTWttPGOuehClU1NZcBYt1f9vmqYP0zS97PzVX+WcN3pP/u2Bf+9GA/jCRCo924nJoRNXGYBVlL1qU0p3DS2yNtaFNYswrPVCi48C8scpQXlsS3bZeIv9sq/rvn3n1y8+Ez709roeYHENNK7B8Yy56mk66niL1PK6fupoG6On2viis4dCci0bAL7ofXUWlBWJp/ZcBOAZLhvaC23UyQaYU+tV5KUqWsj1BEtBeQmYd5s58G8dqShfLwE50CjjmbaMspXHaG630ZnloT3Jra4HCNpR07kdE0MAPFNTLQpL5WAFhwFdiLFSK5PK9ymVY4cWjD5dnLPDOIetsi/5GsX3q4AcaFFTXUWMZ+jUVjqdCskBfsyDB707thgEgGdorVWt8S6sT+shYwnIP1VwHE2KVuUtL7jdFTSsR5zH1vb1XdWNhebQndY+v8zh0ZutVJFP3wnJPSAC/MlnIr1TTQ7AynLOrU0qebaD9Wl5u773DX5+VScmND82/BJUAz/TUkDeyn6+z1EC8gPdJ6AvDT4P2C6Z3mzteeyhkHyEhxqAx7I6jxGYHALgOW4aOnsqyWF9Wq0kv8k5WyS6PkcNt10XNDyDgBzoSEvjGXPV9ORqmwtVvgnJU0oeDgH+yuciIyitBu3JB8CqWmq5LiSHNYj5o1aDMQH5GkVo2Oqi272Uku+FFcSWXQJyoBctbb+iMxY92epz+UOV5ADAeFSTA7CqliaVhCGwHq0uJj7XZn39cs4XpRKo0cO3MP6JBgvIS5eEQwE5dM+iX9i8sv3RVu+9+0JyD4YAf/XS+WAQr2KyAwCeqqXAabeCY4AetDh/dKeKfFatLro1F/oESwH5XjMHvbq7qCBvaTEgsBrjGdis8h17su1zrpIcAFim5ToAq2hq8lhrXViLFhcTn6oGnU8EiecNHrqQ/JEGDchbqi4FVtfaeEaRC607quG5XCU5wCOklNecp9EAACAASURBVOz1wiiE5AA8WYMVVkJyeIbYj7w1JfA6dd1nt/WKoBXsWjz1aBcCcqBHDY5nzFXTso+xVc/WqSQHeByr8xiFlusArOrGmYNhtBiSqyLfgIaryYUNP5BSOhtoO7ojATkMyXgG5ndX0xY994XkVk4CfEtoyEh0lQFgFS2FT77r4HlaDBRVkW9Oi+daSP4dEZC/rvYA1+tNLdVtwMYZz8D8DmtauHpfSG7Tf4BvGTAzEg/aAKzi0lmDYbQ2PjpXRb45UYHbWjWeMdADBgzIzyo4DmA7dJCAef2Sc65q3kC7dQDgayaIAOidLkHwPK0VWKgK3bzWqsktjL9HSulUQA4MxII6mM9VzvmktvP7l5A8paTVOsD9TKQykj37kgOwgpYqL4QhsKKUUmsLKm+1Tt6K1s75jjHQX6WUyn6hb2s6phn9IiAHpmn61NBJUOBCa/ZTSoe1HfPXleRCcoD7mUhlNN7zADyVygsYQ2tzRwLyLYj29h8bO2xjoBAB+YcqDmZ+5zVWtgFb0VJIDq3Zmabp39GlphrarQMA97EiFQCA+7QWkle17+FgWlugICQfMyA/quA4AGAUb1NK17V08BGSAwD3MUEEwJPknFsKorTUhdU19Zyo1fpWtbZAwXfDl/tbQA6MqqXto6Ble6VzQ0pp6+OKr0NyE+IA97MdBaMxQQRAz/ZcXVhZS8+JVxUcw7ByzqVt7W1Dr9+86JdWqCO4EpADX4utQlrx0gWkceWZ4zI62GzN1yG5CXGA++06LwzGwzYAAPdpKUjUan37dBmhNjfTNB26KgCwdSUo/5BSOt7WgWi3DgAAAMBjtVRpqm3q9rV0DYTk/SsB+UFj1aIA0LtfU0pn23iNQnIA4F4ppQNnBoAn0toYqImQfPtauga24uibgBx4jJa2CYGevN5GUC4kBwAAAOCHUkpN7dkce2KzXRYqUINbATnwSJ4dYHs2HpQLyQEAAAB4jJbaUd9UcAzDE0pSgbuyB7n3IgA0YaNBuZAcAHhIU5VCALAFL5x0qJZArB7NLFhorVsCP3QXFeQ6GgBAOzYWlAvJAYCHtFQpBADbICSHegnJ69HStTAG6oeAHADatZGgXEgOAAAAQG8EYzA2ATkAtK0E5UdzvgIhOQAAAAAAPTlwNQGgeR/mDMr/5v0BAAAAAMykpWpebfr78WtK6VI1OQA07zSldD3Hd7qQHAAAAACYRc752JllS8pepvtOPgA0bWeapouU0n7Oea0LGrVbBwAeYsU9AE/1kzMGAFRiL6V06mIAT2BhDdRptwTl6z4yITkA8BCtBgF4qj1nDACoyNuUkv3JgcfacaagWi9TSifrPDghOQAAAAAAvTpLKel2AwDte7fOxW9CcgDgIZ+cGQAAABq3G/uTA/TizpVkYGtb/CYkBwDulXMWkgPwaI1VaF1VcAwAwOa8SikdOd/AQ1JKLxo6OdcVHANsy9oWvwnJAYD7WJEKwFPtO2MAQMVOGwvBgM3y+QDtKIvfDp97tF+H5FafANxPtRGj8UwAAABAT3a0XQeAbpw+t6Pd1yH5Z+8NAEBIDsAKVF4AALV7mVI6cZWAe7TUGUuWB1/arj/rO127dQDgPvYjB+CpWgrJLys4BgBgO96llGwTA3ztWRWpG6a4Bb54+5zvdCE5AHAfD9sAPFVLk0oAwNjOntuiFeiOzljQptNVj9qe5ACPo9qIoeScvecBeCrtCQGAVuw9t0Ur0J2WQnLjGfhT2UrlcJXz8ZeQPOfsxgIAroY/AwCsoqVJJQvEAYDSovVg+LMALBjPQLtWqib/mwsOAHxFFTkAq9h11gCAxlyklF4oHgOMZ5pxPk3Tp9FPwpLFYq/S2W2niiPajt2U0lHO+ewpf/t9IXmpHnvZ8IkAmIPQkJFcuNoAPEVKqaVW65PKCwAglEChTKiv1KYV6ENr45nBt0k8s03k/VJKP0Vovh/fa3s1HueMTuI7/dG+3pMcABjbXc5ZcADAU7XUmtBWYwDAslel+swZgaE1NZ6B+5Rxbs75Iud8knMuQfn/TtP0ZqCtNXef+n1+X0iuTQHAt3w2MgpV5ACsoqXKi5sKjgEAqMtpabvumsCwjGfoToTmpfK+VJf/fZqm96VAqvMrffKU/7OQHOARcs4+GxmFkByAVbQ0qaSKHAD42s5TW7QCXTGeoWsl38g5H0fXhF86DsufVE1+X0juBgP4q1vng0GUVutCcgBW0dKkkm1FAID7vEwpPakCDeiG8QxDiOryk3jPn3f6mp8VkrvBAP5KFTmjsGoegCdLKf1UVms3dOYsDAcAHvIupdRSWAY8k/EMI4rK8hIm/7PDIsGXj/0uV0kO8GNCckZx6koDsILWJpIvKzgG+iJMAejLWYRmwBgOGnuVxjOsTc75stOq8uPH/J++CclzzirJAf5KSM4Iruy9D8CKWptU8n3HuglSAPqyN02TtuswjtYWPBrPsFbRgr1Ulb/p6MwePmbB232V5JP9dwH+wuIhRqCKHIBVNRWSWxQGADzC25RSawsBgdUYz8CX91bZivMf0zTddXA+dkpQ/qP/00MhuZsM4E+2oaB3tznnC1cZgBW9bOjEXVVwDABAGy60XYchGM9AiG7jB50E5SuH5PY0AAixLwf0TBs5AFbSYIWVBeEAwGOVKrQzZwv6ZTwD3+ooKH/1o8VuKskBvs/2E/TuNlrpAMAqWptUso0OAPAUZYL9yBmDbhnPwD06Csq/W00uJAf4Pp+H9O7YFQbgGUwqAQC9O00pvXCVoUs/bMdcGeMZNiaC8tbuka89PSTXWhjgv3we0rMre5EDsKpoW9bS/n3GugDAKkrbdWNn6EyMZ/ZaelXGM2xavOd+bvjEf7fl+kOV5JMWwwB/sDqPnqkiB+A5WltRflPBMQAAbdpLKZ24dtAV4xl4hJzz6TRNHxs+Vw92wPteSC4YAtBunX69j5Y5ALAqrdYBgO9pfR/Tr71LKe3XdUjAMxjPwOMdNfy9LiQHWIUQkU6VbjFWwAPwXPbvAwC+pzwrvO/sDF18r20r0JTWxjNarbM1OefPEZS36MF7/XshuRsOGN3V6CeAbh3Fgw0ArCSldBj7c7bEGBcANudN7GN60tm2nrsWnUP7Gh3PWPTLVuWcLxptu7770AI3leQAD/M5SI/ex0QFADxHa1UXdzoEAcDGlID8bPqz8qy154YfeRsBG9Au4xlYzXGj5+3elusPhuTxANPTKj+ApxIk0psbK94BWBOtCQGA+/w3IF+IYOeXzs7Wmbbr0DTjGVhBzvnTNE3nDZ67/fv+5fcqySc3HjA4q/PoyZ026wCsQ0rpSKt1AOAeP38dkC/knE9i4XYvyrPQva8VqJvxDDxbi0VYT6skDwIiYFS3sSoKenGkLRMAa9Jie1GTSgAwr/Oc8+kP/obDWMDdi1cppVbbzsLIjGfgGRqtJldJDvAEwkR6UlbzX7iiADxXSulFmRBu7ETavw8A5lUC8qMf/Q0xqd5bqHwSz0dAA4xnYG1a66ayc9/39XdD8rjxelrdB/BYFgnRi8es5geAx/rhBHiFPNcBwHweFZAvRDv2jx1dj9Ky2aJ0aEeL4xmfMVQn51zG2beNXZmnheTBhAIwIp999OBJkxUA8AgmlQCAhVXHnEedFWbtpZRa3J8VRmTRL6xPa4VZ37RcF5IDfEsLG3ogIAdgrVJKZe++3QbPqjEtAKzfzaqt03POnxvdE/h73qWU7t3vFKhDSumo0fGMRb/UqrWx9k9f/wshOcC3fO7ROgE5AHNocQ/Rm9j/FABY4/frNE0HEXavJNq0vu/smlyklL6ZgAeq0eJc2c1zPmthTlFo2FLL9YOv/8UPQ3L7kgMDsjqPlgnIAVi7lFIZTL5s8Mx6rgOA9Xp2QL7kJH5fL3bjNQGVaXg8c1bBMcD3NF1w+JhK8snEAjAYleS0SkAOwFxa/X4xlgXYspTSZUopN/LzTYURf7HOgHzRdr23Mezb2KIGqEurnzXmqaldS9vWrrQn+eRGBAaiJSeteiMgB2AOKaUX0zS9bvDk3kZnNADg+Uqn0cN1t/2N7+pfOrs+Z9quQz2MZ2BWLb1Hd77+FyrJAf7KoiBaUyYq/plz1n4JgLm02jbUOBYA1uMuKshnKSrIOZdnjauOrtWOFslQFeMZmEnOuf9267FCsKf9YQAe4uGDlpTv5v3WH0YAqFfDVReTyWkAWItFQD53pdhR/F29eJVSOvYWhO0ynoGNaOb7++tOL4+tJJ/ckMAA7oSNNOSXnPO+7QEAmFmrVRdaEwLA820qIJ9ibNtbqHySUvpm/1Ngo4xnYH7N7kv+lJBcdSXQO59ztKBUj/8j2tEBwGxiUrfVqgvPdQDwfIebDGliG7GPHV03bddhi1JKB6rIge95dEgeq/lunU2gYyZTqd2ietxKUgA24bThs9zysQProXoTnufNlrrt9dZ2fS+lZJE7bEfL956QHDbgKZXkkwAJ6JxW69SqrKT/u+pxADYlpXQ4TdPLRk/4je1IgGmafnISqtHStfhcwTHU4E1UdW9czrlcg8POzue7qGgFNsR4Bjaq2ffrU0Nyq1eAXn2MgRjU5Gqapn/mnA89HAOwYarIgdYJyeux18qB6tr1h60F5AtRwf5+m8cwg7OUks8l2IC414xnYHOa/X57UkgeD4pargM90imDmizC8YMttbcDYGDREnS34TPguQ7m09LC4maC2Z4JBZtzte2AfEl5Hrlp7gw+bFfwBRtz3PB45s54hgaNEZIHNyjQm7uKBoGM7Xyapn8IxwHYlpTSi9IStOELcK47EMyntSrb+Exju+wNz0ri+/yos7P3OlpAAzPpYDxzYTwDm7NKSG7FG9Abi3/YprIy/udpmv4353ykvR8AW9b6wkELH4FlAtrta+ka9FS13IUYH//S2cvSdh3m1fp4QP4GG/TkkDz2RPXQCPRESM6mLYLxv+ec93POp1aJArBtKaXSlvBlwxfiRicW2Ii7hk6zkHz7WroGxmQVyjmfxJZkvdgxDwXz6GQ8o3iGFrX0vPeXe2yVSvLJ6nygI7c5Z4MT5nYTrdTfRMX4Ihj/5MwDUINoS3jS+MVQdcG2tFQRuI4QsKXJ24MKjmF0LV0DIXm9jhpboPMjLyPMA9bEeAa2I7qj7LRy+r8uVPvbir+nhOS/rueQALZKQM463cTESpk4LAH4tYo2ABpx1tLA9h53W3quu26oWqWs7vdcMo+9Vg50TdVJLQWJLVeTNS8Ci92GXofqvUqVBeYppRKU/7ujl3WSUrpUNQprc9H6eCbnrDiVFjXduWmlkLwk7Smlj9M0vVr/IQFs1Ogr9P5ZwTG07lqrdABallI66SBI2tbWJS09A9j/dAaD7it73dJ8UErpUPewrWmtkt+4rmLlPu5sPnonFinaFgKeKcYzzSxafMDoc9S0q6Xvsduv/8WqleRTfIkLyYGWXY3e7lqVMwCMLaVUAox3HZwEVRc/pu30PEYMN1obQx3oILY1h40dr4re+h3FdWqpQ8H37JVwL/ZdB1ZgPANb19I485txzKp7kk+xCveb1B2gIR4+AIBhRQVsD8HR+RYXPrZUdfiigmPoUdOVEytqLSRvLajtQnzHtFZcIySvXHSNOersZb2LkA94IuMZqELT32Erh+RBwAS0yj4vAMDoWt+3b2Gb1VctBSq7sT8w69VSSL6WydcGu1GV976gfPNaO+d3ttFqQ3wGve/sZZ0Nun0HPNel8QxsT0ppv7F78JtxzHNDcvskAK0SkAMAw0opnXWwD/lk+5wnU6m2fqOe09Y6CwrJN++4seNVRd6QnHN5f9109JJ2zbPD08R4pvV9yCdV5DSute4u3yyIfFZIHissz591SADbYfABAAwppVQGsq87ee3brrpoLVQRkq9RVE60tC/uOivAW3vvv1aluTlxb7QWXLTWIYH+2q6/1vUCHqez8YxCLlrW2vfWN2OY51aST25ioEEfrdADAEYUk68fOnnpV9tu+9xga16T7+vV2qKDdb5fW6y6ba2yuWUtnmuV5I3JOZdr9nNnL0vbdfiBCMiNZ2DLYm6hpQXD0ywhedzEV8/9PQAbpIocABhOVPb1tMi5lr37WhoP76hSW6vWqhjXGQK2OKF7LHyaX0rpRaPVfULyBuWcTzubly77ul5UcBxQpRjP9DSvay9yWtbaWOjuvkXu66gkn1STAw25tUIPABhNTChdxuRrD2qqumitQ5GQfA0abSe9tvdqo2OqHdXkG9HihP+tbnNNK5P0dx29npcpJZ9V8JUOxzPn5qhpVSyKfNXY4d+7IHItIXnOuYTkt+v4XQAzs0IPABhKhxNKU2Wr1lsLVuzNvB6tBRh3M4SALVZvqiafUcNV5EKKhsVnW2/7k5/E8xvQ73jGHDUta/H9e+/z3roqySc3NdCA21jUAwAwhE4nlM4rq/hrsu10BcfQrAhZW6vIn6OVdKvV5Lbfmk+r420heeNyzqVF+ceOXtKOzq3whfEM1CXuyW621llnSH7RWWsboD8mQwCAYXQ6oTRVuEC7xX1sVdM+z3GD95WQ/E+lm8JBLQfTi5RSWTjystGXIyTvw1FnnU73UkrmsRhap+OZOwWnNK7V76Z5K8ljw3Nf3ECt7qzCBQBG0XFA/kttVRcxFm5tUt7ezCuKxQUtnru1h4Cxj2arxRLmr9Yo7otWx9s3qvn6EN/HvbVdf2tRD6PqeDxz6nuHVqWUjhtdFHkTzwnfWGcl+RSDDNXkQI1OH/ogBADoSVTz9TihdFdxsNVky3XV5Cs5afTemqvjwcVMv3duKjTX66zh7xxV5B2JxTvvO3tZZ76vGU1K6ajT8cythXq0KqX0ouEuCA8+7601JFdNDlSq5glVAIC1iZXd/+5wQqk4rnjRo72ZBxAVTW8bfKW3M1YstRwwqtBcgwgyXjX8EnSc60zOuTwL3XT0qna9TxlJjGc+dDqeOVHERcO6XBS57krySTU5UCFV5ABA91JKZdD6a6ev8yrnXPMEsb2Zx9BqSDHn+7PVSvKFi6iKYQWxcKTlxTZlAclcXRbYrt7arr+KTkHQrdIxwXgG6hQdmFpss/6HnPODY5a1h+SqyYHKqCIHALpWAp6UUpnkf93x66x6D+io0m1tX/IFbVwfIaVUWgvuVX+g95stJI85oI9z/f4N2Img3D3wRHHOWm+F2/oiDx4Qix9+7uz8nFnUQ6/ivX1pPAP1ia5BLXbTWvjuWGWOSvJJNTlQEVXkAEC3oqrouuHw7jHeN1Lp12rYoo3rD0S1/buqD/L75n5vth407rkHnqaTgHxy3fuWcy7z01cdvcgd71l6ZDwD9YquQR8av0TfHavMEpKrJgcqceuzCADoUbQjPO14//GF8jx3Useh/FDLezO/ikppvhJhYMsh8M3ci4ajdWjrhRKvosUrP7AUkLceZmi1Poajzgq5XsZ+zdC8pfbqxjNQoQjIWx7jLmw+JJ++DJJOGm43B/ThRBU5ANCbqGq9brzl2WMdt/I8F/uctTwR/y5a6RE6qZbdVPDbQ9vq14Ly7+soIJ8sqB9DbIfS23fbrxFcQLOWxjM9t1dfODI/TWuWAvLWF7B8/NH9N1tIHqyQAbblNioaAAC6sFRt8Vu0yO7dxwieW9J6UPjBxPtf9BAGbuo92UvgKCh/QGcB+WQ/8nHEs8R5Zy/Y5xRNivHMxWDjmR4qcRlILJz+vZMODz983ps1JI+A6mbOvwPgAapgAIBuRCvsT4NUW0xRkd3i81wPocvl6EH50oKU1sPAm6iinF20re5l/qcE5ZcRCtNnQH6+qXuDahx31vF0L7bdgWYsjWdeDXLVWh3PMLD4bml9D/KFu8cUUc5dST7FQwjAJl1ZpQcA9KCs4k4plcmkd53v1fe1JtsSdtByfYr3WQkIDys4lo1bCgN7WJCy6UrDngKblxaMfBHn4FNHAfmkCnc88UzRW1j1NlpWQ9WMZ6B+KaUXZZFoZ1u6Pep5b/aQPIKqj3P/PQBLrNIDAJq2NJn0YZBWhMvOG2yzvqyHavIygfnv0fYoL5NDnVXLbjQIjEqN1heJLNsbecHI9OWeOO6o3ebCjUX1Y4rr/ktnL/5M1wtqNfh45n3j4xkGEs9717FItCePWsC7iUryKarJexooAfV6r20aANCiaPF8PPBk0hStUFvvRtZTNW3Zo3yICfioxrvurJ30NqqXemv/u1gwMlQQtbRn7K8VHM66aVE9sJzzSWdbg+7qjEBNjGf+UMYzJxUcB3xX6RYU1eO/dtjl4eqxGdFGQvI4GA+hwNzuPIQAAK2JwelZtLP9ddDJpIXD1tsSdrY38xRtx7tuOx17ZP7W2eTQtkKT006LJMp9cD1CVXlUE/W6Z+ztY/ampHtHnX1OvRq54wV1MJ75i+bHM/QtWqufRbeg3qrHFx6dEW2qknyKgdLtBv8+YDzHHkIAgBbERNJpVFn8HgHMSHv03efnCJh70Nsi8VJd/XuEyd0o1eMppevYI7Mnt9tqJx3jsV6LJHajqvwyWvN3Je6HXquJFiyqZ7GYrbf3wlmPn0vUzXjmXj2NZ+hMPOuVTkH/ifu1V08aC20sJI+Bkn2CgblcWREOANQqVmsfRcvexUTS28GrLJZ9zDl3E6x1uDfzwrvy/m29Ym2peuK3jtqrL9t2+NNrNflCqbj5T3yeNx9Kxf1wEfdDr9VEkypylsUzx1VHJ2VH23XmZjzzQ12NZ+jDV4tZfuu0U9DXnjQW+ttGDimU9D6l9HGQCwFsVut7VwIAnYi21CU42V/6MXn0sNtOF1SfdlihPC1V05Zw4TTnfFHBMT1KBJrH8X7rtdKphNNbvSalSKJMxnX6/l9WKnBep5TOSzi1rer9VcU+/CedB+PLVJHztcNoDd3L98HLsl2CkI51MJ55sl7HMzQmnu8W9+zhgN0dnrwoMuWc5zuc+/7ClH7q7AEE2L5fcs4GvAAMJwZAvzXyukug1lSA8AMv4mfZKEHDOpVA76DHtoQDjX1vY0HAWa1bH8Vn5VHnbQUXqhgbDTr3cxOVnBc5508VHM83YqHIYSwWGSnsKBOmW6v6b+15Led8UMFxbER0Rvl3Zy/rHy09VxnPbJXxzHp0MZ6JbZVaWeB4Hs+Zo1v+vt6Xuf7hTfUh+fTlhjuOPY4Anmurg10A2KbGJpXgPk8exLakscmmdfgYVcwX2w7M4/PxMH5GCQPLJO2LWhYrDD73swjML7c9aR7VgIt7ocftBR7jX9vseiEkr1tsv9HTIqqbnPN+BcfxKMYzdKCL8cyA4xb6s9L331ZC8unLTXdpZRKwBv9sra0dAKyLSSUa9z7n3PWWOYN3UruJaqvrOAfXc4W3X7UEPRi4kqK6Dlux/+Ho7Vnv4j5Y3A+f5xjDxufN/lJl4IF5tz9sPfQVktct7p3rzj6rmnnGMp6hcd2MZ4TkdGClnGije5J/5SgeQLQAAFb1XkAOANCkj70H5NNYezPfZ+/rqtWU0hTt2dfVHlEA+Ke7aHtfmyPhxx/zXi+X369xL0xLAfpzaK/5fd1/1/A88V3d22fV25TShTkzmNUQ4xloxNWq33lbC8nL/kyxOkXbdWAVZXLNPuQAAO25ieBsFKcR0gixvthVWTyL0xr3hC+TVSml0ob/VQWHU6Mdiz1m9b71PWLZjPis+qWzRW0XKaVqtuCAzow2noHarXw//s82X1jOuUwWXG3zGIBmHXrQBwBozt1oz3HxWi3uZE63tbVZ/8px3PuwSRbW8yTxOXrT0Vkri3Ca3ycZKlSeaQ7MS0M1ypZTK3cq22pIHg4NloAn+sVqcACA5iwmlNbVarsZsUD81luWmVTd6jPueWElm3YswGAFR53NU7+KVvLAegjIoS7PXiy89ZA8PlB8WQOPdVN5lQQAAPc7GHyho3Evcyj7713UfmZ1EmTDPrZwX1CfeE7pbc7ptLRdr+A4oHV3xjNQnWePsWuoJJ/iwfW8gkMB6nYX3ScAAGjLm9EnlMp+p8a9rNldY4sveqvQpE63FiXxHB0u6tF2HdbjePTxDFTmfYyxn6WKkDwcd7bvC7B+xyO25wQAaFwJyE3OfmFvZtbptKXxURxr1a3h6cKRNrisQW/bg75MKenKCKsznoG63Kyr80s1IflS23UTBsB9zj2MAAA0x4TSEtuNsUZNbkMVnwcfKzgU+rSWiiLo9Pv6XUppv4LjgNYYz0B91rYosqZK8sW+L1YVA1+78dkAANAcE0r3iO3GhIQ8R2tt1r92FC2xYZ3KwhHzBqxNfF+/7+yMnqWUfqrgOKAVxjNQn5/XufVBVSH59OeqYvu0AQt32qUBADTHhNL3CQl5jpOW98SMsV1vrYzZrrt4T8G6nXT2fb23rva0MADjGahP6TZ8us6jqi4kD/YnBxaOWp4AAgAYkAmlH9B2nWf4uO6JoW3QSZA1O2xpf37asbSopydvU0oH3obwXcYzUJ9Zug1XGZJbVQyE99HeCgCANphQeqTYN/eXJg6WWtz2tLgiPit6a2XM5r2xDzlzikU9vX1fX2i7Dg8ynoH63MWiyLV3G661knyKFaBaJcG4ruwnBgDQjDJo/YcJpafJOZ/Yn5wnmGViaJtizOceYFXnvnfYhPi+7qnr6U7Zn7yC44CaGM9AvQ7m6hpUbUg+/bmy/ucKDgXYrBuLZAAAmnEXg1Zb5KzmyHZjPMKbju8x9wCrKFsP2LaCTeqt6+mrlJJ7CL4wnoF6zToOqjokn74E5WWvrfMKDgXYjLvYh7yrCgkAgE6VYGvfhNLqlvYnt90YD+m6WjbugQNBOU9w09PWA7QhKthOOrtcpymlFxUcB2xT+U55YTwDVZp9+4PqQ/Lpy0OIVcUwjkMPJQAATfg4Z9uzkcTzr05K3GeIalmLRXiCm/jusbCejYtirp62iNB2ndF99J0C1Xq/iYXCTYTkwapi6N+b2GYBAIC6lQFrd/sjbVtXuQAAC/ZJREFUb1M8B78Z9wxwj6GqZWOxyIGgnO8QkFOD3hb0vEwp9VYhD49hPAP1Kp20jjdxdM2E5FYVQ/c2sjIIAIBnuYuFjRsZsI4mnocF5UyjhoGCcr5DQE4Vluaoe/IupbTvHcYgjGegbueb7KTVUiW5wRL0a2MrgwAAWNltBBQWNs4ozu/7bl8gjzF0GGjuh3sIyKlKzvmiw+/qs5TSTxUcB8zpxngGqvZ+01tNNRWST38OloZpNwYDuBphjz0AgMaV/fr2YzzGzGIB6bnzPCRhoKCcv3JPUKuTWEDYi714TdCr8/g+MZ6BOm2lw0NzIfn052o9LeigfWWwe+g6AgBUqwRUP9uvb/NiIamgfCzCwCUxib0f54UxuSeoVrwve5vTeptSOqjgOGCdFu3Vj3yfQLXebKvDQ5Mh+WSvNuiBwS4AQN0Wz2unrtN2RFBu3DsG46N75Jw/RUW5oHw8H90T1C4W8/zS2YW60HadjtxENyzt1aFOZRHLP7Z5jzYbkk9/BuW9PYjACG4NdgEAqvZLzll79QpYID4EAfl3xHk50FlhKOc6mNCKnPNJZwt5dsr+5BUcBzzXYjzzyZmEKt3UsKVb0yH59OeDiIEStKOsDjLYBQCo002s5LYnZUUiKP+X/Zm7dC4g/7FyfqKzgkKJ/r2Jaw0tOezsO/pVSmnj+8LCmhjPQP0WY6CtL2JpPiSf7NUGLbmLDz8VSQAAdblTPV63nPNFVNMKyvvx3v6YTxMT3haM9Gnr7TZhVTHJ31sgd5JSelHBccBjGc9AG36uaQzURUg+CcqhBQJyAIA6fYw2Z6otKhfP0i/sz9y8u6iWVaW3gqUFI+6DflyVzzbzBbQs53waz1S9KG3XL7wpaYTxDNRv0eXhtKYj7SYknwTlUDMBOQBAfW6nafpn7Ptqr75GRNvp/VKFPPq5aNRtjI1Uyz5DjC0P3AddKFV/thygF0eddbrYSykJHamZ8Qy04X2t+VBXIfkkKIcaCcgBAOpyFy3OStXepWvTpqhC1na6LYsqJ2OjNYgFI+6Ddi2CDQEc3YjFHoedXdF3KaX9Co4DlhnPQBsWz3vHtS6I7C4kn/4Myn+p4FBgdDcmgQAAqnEX46QXtbU4YzXRdno/WhVTr8VE7qFq2fWL++BFZ22Oe/c+5goEG3Qn3te9dbm4SCn9VMFxgPEMtOOXFp73ugzJpy8PJGUl6psKDgVGdRMV5FrdAABs1/Jk0omQri/lebu0Ki4h7OjnolJXMTlkIndGUVV+qKq8etVXE8GanMS8WC924zXBthjPQDvK+Ofvrdyr3Ybk05dB0pmgHLZiEZB7YAEA2B6TSQOJEPbvqsqrsaget3B4g5aqyu1VXp9ftMVlFPHMddTZy32bUuqtlTz1M56BdiwWQzY1/uk6JJ/+DMqtJIbN+SggBwDYqluTSWNaqip/Ywy8VR9Vj2/P0l7l/7BopAofF9VEo58IxhJbD/a2HeiZtutsyG10STKegfqV+/VNq4shuw/Jpz9XEh+YJIDZndtnDwBga66WBqcmkwYWi8VV027eTVRPHKoe374SUMWikX/F5B2bdeV+YHSxOKSnxTo7JSiv4Djo1/J45tR4Bqq2HI43+90wREg+/bl676Cz/WCgJqV1Wm+tpAAAancXQejfo62ZiUv+sFRN+/eo5GQ+iwmifa2k61MKJ8rkXXRYEJbPb3E/HLgf4A9HnRVuvUopHVdwHPTDeAbaUhaz/Kv1cHxhmJB8EpTDnN5onQYAsFHnMTD9qQShqvR4SLRgL3uI/lPr6bW7W9pn2YRu5co1EpbPqotqIli3eEbrLVQ+SSm9qOA4aJvxDLTjLu7ZxWKWi16u3VAh+fTnavr9uKDA85QPx38YAAMAzO4uqoFLuPO/pYNPTwNT5lcqOqP19D9Vlj/bbdyLLywWbs9XYbmFI8+3aKsuHIcHxL3R03dvabvuOZSnMp6B9nyMRZA/xT3b3WKWv1VwDFtRLmhKqVSW/zrgy4d1KB0Z7C0GADCf25iAvDSBxLpE++PLqAArAe9hTHbzYyUMPBME9iGu41lK6SDaIb8e/Zw8wV18P52YE4BHK58znzr6zt1LKZ1YLMYPGM9Aez7GfVu2LPrc+/UbNiSfvgyITiMovzApAE9SOjEcj/AhCQCwQWURYhmfXMZEkuCB2cT7qywe/ymC8tIKds8Z/8YiDDyNLdzozNLCkeMIsY7cCw/6Y6HIKJOmsE7lnkkple/b3zo6se9SShe+H1liPAPt+e9ilrhvh3rGGzokn2IwlFLajzeBQRD82M9lgYnzBADwLDdRTbSYRLoWOLAN8b5bVNTuR0BYJvF3B78gHyMIVDU+iLgXylj3NDotHLsX/nCzFIwLO+AZYh76/TRNbzs6jxfl+cFz7JCMZ6BNV1/dt0M/3w0fkk+xgj7aa51qrwUPuov26pdOEQDAD93GpNEUg8/Fn59V21CreG+WYPB4wMD8Lu7RYVoL8rCYLFy+Fw7iXng5yGn7uLgfRp84hRmcxGdKL8Vau/Gajis4FtbLeAbadRVHXu7Vz3HvfvJc962Uc67tmLYqpXQUYbn26/CnqwjITRQBQEWiTfK+a1IHiwnpVVTVLkLCg47Gy1dLbQXdv/xQfO8eLP30EnL9t6LInrHAJhnP1MXz0Ljief/F6OehYRavrEhIfo9YJXym/Tr84Zec84lTAQAATH8NzfeXfmoPzv/SEtQkMOsSnQkPYmJ5v4G5pKule+HavQAAwKiE5A+IVWzarzMy7dUBAIBHWaoEe/HVzzRtJkS/iVaCk5agbFsUXyzuieU/p5lbtt9F+D1FEP4p7otrLTYBAOCvhOQ/kFI6jKpy7dcZSdl/7Eh7dQAAAAAAAHrzP67o98VeTPtLG91Dz8qq8zc5Z/uPAwAAAAAA0CUh+SOUdlQ557K/1M8RIkKPykKQ/ZzzmasLAAAAAABAr7Rbf6KU0otovz7nHlKwSWXhx0nO+dRZBwAAAAAAoHdC8hWllI5LsGivchp3FXuPf3IhAQAAAAAAGIGQ/BmiqrxU375q9kUwqrsIxy+8AwAAAAAAABiJPcmfIfYqP5ym6V/TNN02+0IYzftpml4IyAEAAAAAABiRSvI1SSn9NE1TacH+rosXRI9uyns053zp6gIAAAAAADAqIfmaacFOhe4iHD9zcQAAAAAAABidkHwmKaWDCMv3unyBtOKX8j7MOX92xQAAAAAAAEBIPruU0tE0TSfTNO12/lKpy3l535V9810XAAAAAAAA+JOQfAOW9isvPzvdv2C26SrCcfuOAwAAAAAAwD2E5BskLGdGwnEAAAAAAAB4BCH5FgjLWSPhOAAAAAAAADyBkHyLhOU8g3AcAAAAAAAAViAkr8BSWH40TdPu6OeD7zqfpulMOA4AAAAAAACrEZJXJqV0FIH53ujngv+6m6bpIirHPzktAAAAAAAAsDoheaVSSgcRlr8a/VwM7HaaptOoHP88+skAAAAAAACAdRCSVy6l9CLasGvFPo6PEYxfjH4iAAAAAAAAYN2E5A1JKR1GWK66vD+lavwswnEt1QEAAAAAAGAmQvIGRXX5YbRjV13ersVe4xeqxgEAAAAAAGAzhOSNSyntR3X5ocC8GR+XwnF7jQMAAAAAAMAGCck7IjCvmmAcAAAAAAAAKiAk71QE5ofxszf6+diCRSv1S8E4AAAAAAAA1ENIPoDYw/wgAvPy587o52QmN0uh+GWXrxAAAAAAAAAaJyQf0FKVeQnMX45+Pp7hNkJx1eIAAAAAAADQCCE5JTQvYfl+hOYqzR92NU3TdYTi1znnT7UeKAAAAAAAAHA/ITnfiPbs+0vB+f6AwflNBOLXEYhrnw4AAAAAAAAdEJLzKCmln5ZC85+WQvTWw/MShn9aCsQ/5ZyvKzgu4P/buYMTAGEgCIAXG7EFS7B1O7GElCDCCRLEj6iPzEDIN+Seyx4AAAAAAMALhOQ8luvaIwP087030seff3jJe22PdekAAAAAAADQHyE5nyilTNlAj1MT/cp8854j6G7VbIEf9vXo1WQBAAAAAACAlpAcAAAAAAAAgG4MRg0AAAAAAABAFyJiAzgMYED+hcISAAAAAElFTkSuQmCC;movable=0;resizable=0;rotatable=0;deletable=0;editable=0;locked=1;connectable=0;" vertex="1" parent="ocwCyY5JtM8R12H6Ftph-3">
          <mxGeometry x="91.27000000000001" y="230" width="1017.46" height="170" as="geometry" />
        </mxCell>
      </root>
    </mxGraphModel>
  </diagram>
</mxfile>
